<?xml version="1.0" encoding="UTF-8" standalone="no"?>
<!-- Created with Inkscape (http://www.inkscape.org/) -->

<svg
   xmlns:dc="http://purl.org/dc/elements/1.1/"
   xmlns:cc="http://creativecommons.org/ns#"
   xmlns:rdf="http://www.w3.org/1999/02/22-rdf-syntax-ns#"
   xmlns:svg="http://www.w3.org/2000/svg"
   xmlns="http://www.w3.org/2000/svg"
   xmlns:sodipodi="http://sodipodi.sourceforge.net/DTD/sodipodi-0.dtd"
   xmlns:inkscape="http://www.inkscape.org/namespaces/inkscape"
   width="210mm"
   height="297mm"
   viewBox="0 0 210 297"
   version="1.1"
   id="svg848"
   inkscape:version="0.92.2 5c3e80d, 2017-08-06"
   sodipodi:docname="cassette_load.svg">
  <defs
     id="defs842" />
  <sodipodi:namedview
     id="base"
     pagecolor="#ffffff"
     bordercolor="#666666"
     borderopacity="1.0"
     inkscape:pageopacity="0.0"
     inkscape:pageshadow="2"
     inkscape:zoom="0.6111341"
     inkscape:cx="294.99998"
     inkscape:cy="671.6667"
     inkscape:document-units="mm"
     inkscape:current-layer="layer1"
     showgrid="false"
     inkscape:window-width="1280"
     inkscape:window-height="755"
     inkscape:window-x="1920"
     inkscape:window-y="1484"
     inkscape:window-maximized="0" />
  <metadata
     id="metadata845">
    <rdf:RDF>
      <cc:Work
         rdf:about="">
        <dc:format>image/svg+xml</dc:format>
        <dc:type
           rdf:resource="http://purl.org/dc/dcmitype/StillImage" />
        <dc:title />
      </cc:Work>
    </rdf:RDF>
  </metadata>
  <g
     inkscape:label="Layer 1"
     inkscape:groupmode="layer"
     id="layer1">
    <rect
       style="opacity:0.87999998;fill:#000000;fill-opacity:1;stroke:#20ec30;stroke-width:0.76499999;stroke-miterlimit:4;stroke-dasharray:none;stroke-dashoffset:0;stroke-opacity:1"
       id="rect812"
       width="124.35416"
       height="124.35416"
       x="15.875"
       y="57.111107" />
    <path
       style="opacity:0.87999998;fill:#000000;fill-opacity:1;stroke:none;stroke-width:0.76499999;stroke-miterlimit:4;stroke-dasharray:none;stroke-dashoffset:0;stroke-opacity:1"
       id="path814"
       d="m 33.180112,37.346694 c -0.01839,2.193943 0.217541,4.387363 0.48894,6.562233 0.309655,1.667385 0.374287,3.480133 1.036828,5.065998 0.01164,0.01881 0.02331,0.03762 0.03495,0.05643 0,0 -2.267688,1.250075 -2.267688,1.250075 v 0 c -0.0021,-0.02222 -0.0044,-0.04447 -0.0066,-0.06671 -0.513768,-1.676707 -0.671338,-3.45703 -0.937543,-5.181523 -0.272995,-2.166234 -0.515051,-4.34203 -0.634228,-6.522054 0,0 2.285363,-1.164449 2.285363,-1.164449 z"
       inkscape:connector-curvature="0" />
    <path
       style="opacity:0.87999998;fill:#000000;fill-opacity:1;stroke:none;stroke-width:0.76499999;stroke-miterlimit:4;stroke-dasharray:none;stroke-dashoffset:0;stroke-opacity:1"
       id="path822"
       d="m 34.214186,44.34872 c 0.952238,0.194386 1.922568,0.270137 2.891139,0.325593 0.881814,-0.115284 2.41913,-1.178303 -1.375603,0.898081 0,0 2.371161,-0.972762 2.371161,-0.972762 v 0 c -1.274254,0.779999 -1.803058,1.53783 -3.060634,1.554382 -0.980884,-0.07322 -1.961276,-0.162655 -2.92995,-0.339294 0,0 2.103887,-1.466 2.103887,-1.466 z"
       inkscape:connector-curvature="0" />
    <path
       style="opacity:0.87999998;fill:#000000;fill-opacity:1;stroke:none;stroke-width:0.76499999;stroke-miterlimit:4;stroke-dasharray:none;stroke-dashoffset:0;stroke-opacity:1"
       id="path824"
       d="m 38.378286,38.592236 c 0.0941,1.725826 0.456491,3.421618 0.799314,5.111234 0.398931,1.562256 0.821973,3.117842 1.193623,4.686908 0.08054,0.282607 0.02774,0.180737 0.113551,0.324956 0,0 -2.251213,1.269884 -2.251213,1.269884 v 0 c -0.07647,-0.207055 -0.03551,-0.07784 -0.100848,-0.393944 -0.307264,-1.591516 -0.713558,-3.160215 -1.118725,-4.729152 -0.357328,-1.691745 -0.706414,-3.386793 -0.926893,-5.102465 0,0 2.291191,-1.167421 2.291191,-1.167421 z"
       inkscape:connector-curvature="0" />
    <path
       style="opacity:0.87999998;fill:#000000;fill-opacity:1;stroke:none;stroke-width:0.76499999;stroke-miterlimit:4;stroke-dasharray:none;stroke-dashoffset:0;stroke-opacity:1"
       id="path826"
       d="m 43.345314,45.352729 c -0.318903,-7.94e-4 -0.631235,-0.03888 -0.940956,0.06304 -0.110877,0.03649 -0.421021,0.200676 -0.320001,0.142203 2.213552,-1.281253 2.422171,-1.476616 1.589784,-0.809019 -0.604047,0.597646 -0.878655,1.351782 -0.761437,2.18745 0.469138,0.982679 1.416267,1.276305 2.424343,1.364684 0.16823,-0.03806 0.341603,-0.05803 0.504693,-0.114175 0.165261,-0.05689 0.628112,-0.306462 0.474577,-0.222944 -0.578498,0.314688 -1.132972,0.686806 -1.750068,0.916776 -0.16221,0.06045 0.240012,-0.251084 0.341022,-0.391668 0.291809,-0.406138 0.262133,-0.461766 0.395475,-0.938329 0.125508,-1.251645 -0.716812,-1.913567 -1.769795,-2.33857 -0.163457,-0.0041 -0.329438,-0.04122 -0.490373,-0.01233 -0.167386,0.03006 -0.622708,0.270354 -0.475182,0.185745 2.058517,-1.180592 2.106893,-1.359294 1.36315,-0.455599 0,0 -2.314427,1.000659 -2.314427,1.000659 v 0 c 0.848032,-1.301451 2.449766,-2.403117 4.020584,-2.120437 1.135081,0.513943 2.009005,1.296332 1.945312,2.644767 -0.03642,0.186204 -0.04892,0.378728 -0.109246,0.55861 -0.554368,1.652863 -2.565694,2.550763 -4.19553,2.749661 -1.108683,-0.146672 -2.10476,-0.568804 -2.611107,-1.635464 -0.167658,-0.895471 0.05355,-1.715569 0.647999,-2.418969 1.146088,-1.102045 2.531584,-1.949844 4.111541,-1.867574 0,0 -2.080358,1.511466 -2.080358,1.511466 z"
       inkscape:connector-curvature="0" />
    <path
       style="opacity:0.87999998;fill:#000000;fill-opacity:1;stroke:none;stroke-width:0.76499999;stroke-miterlimit:4;stroke-dasharray:none;stroke-dashoffset:0;stroke-opacity:1"
       id="path828"
       d="m 47.897097,36.534087 c -0.04148,1.696593 0.333063,3.380097 0.692483,5.029427 0.480584,1.966421 1.120439,3.902626 2.19573,5.626423 0.283879,0.337095 0.683741,0.938702 1.215675,0.922533 0.116287,-0.0035 0.216064,-0.08636 0.324099,-0.129534 0,0 -2.03454,1.538737 -2.03454,1.538737 v 0 c -0.828111,0.02413 -1.196245,-0.431168 -1.663911,-1.078669 -1.051812,-1.768084 -1.705603,-3.724717 -2.202384,-5.715389 -0.380304,-1.652336 -0.757642,-3.331917 -0.806686,-5.032047 0,0 2.279534,-1.161481 2.279534,-1.161481 z"
       inkscape:connector-curvature="0" />
    <path
       style="opacity:0.87999998;fill:#000000;fill-opacity:1;stroke:none;stroke-width:0.76499999;stroke-miterlimit:4;stroke-dasharray:none;stroke-dashoffset:0;stroke-opacity:1"
       id="path830"
       d="m 54.569089,44.766346 c -0.453233,-0.184245 -1.003712,-0.480483 -1.510643,-0.301742 -0.120341,0.04243 -0.435166,0.265938 -0.321927,0.207129 0.618614,-0.321265 1.226156,-0.663408 1.839235,-0.995111 -0.699349,0.768313 -0.969325,1.775431 -0.843221,2.792 0.391617,1.06844 1.18192,1.167683 2.17325,0.893196 -3.070294,1.821408 -1.253199,0.732941 -0.639149,-0.181734 0.364456,-0.542885 0.412126,-0.744186 0.65963,-1.344904 0,0 2.269681,-1.051189 2.269681,-1.051189 v 0 c -0.894173,2.377059 -1.816524,2.888697 -4.303279,4.108442 -1.113866,0.188756 -2.002996,-0.101645 -2.403051,-1.241584 -0.165725,-1.081198 0.09079,-2.12811 0.726741,-3.025931 2.140972,-1.312148 2.46175,-2.167842 4.49833,-1.270299 0,0 -2.145597,1.411727 -2.145597,1.411727 z"
       inkscape:connector-curvature="0" />
    <path
       style="opacity:0.87999998;fill:#000000;fill-opacity:1;stroke:none;stroke-width:0.76499999;stroke-miterlimit:4;stroke-dasharray:none;stroke-dashoffset:0;stroke-opacity:1"
       id="path832"
       d="m 54.000034,35.216658 c 0.38585,1.752573 1.163241,3.412667 1.936123,5.025173 1.045948,1.925129 1.892626,3.946779 2.704883,5.978765 0.524571,1.035302 0.791147,2.522257 1.668304,3.338338 0.03933,-0.02814 0.07866,-0.05627 0.117985,-0.08441 0,0 -2.08789,1.509781 -2.08789,1.509781 v 0 c -0.07178,-0.03064 -0.143558,-0.06127 -0.215339,-0.0919 -0.845175,-0.964216 -1.106038,-2.332657 -1.644904,-3.466502 -0.783625,-2.037596 -1.631212,-4.053708 -2.678674,-5.971897 -0.792781,-1.627569 -1.562115,-3.29529 -2.060051,-5.038635 0,0 2.259563,-1.198713 2.259563,-1.198713 z"
       inkscape:connector-curvature="0" />
    <path
       style="opacity:0.87999998;fill:#000000;fill-opacity:1;stroke:none;stroke-width:0.76499999;stroke-miterlimit:4;stroke-dasharray:none;stroke-dashoffset:0;stroke-opacity:1"
       id="path834"
       d="m 61.489296,44.34872 c 0.69574,0.109111 1.463002,0.434067 2.130745,0.104124 -0.666483,0.374631 -1.326317,0.761351 -1.999454,1.123897 -0.06313,0.034 0.11965,-0.08203 0.166238,-0.136546 0.23029,-0.269463 0.24234,-0.681054 0.275931,-1.014119 0.06271,-0.526738 -0.08462,-0.878205 -0.553641,-1.108964 0.258144,-0.409001 -0.964718,0.269534 -0.741317,0.158453 0.633209,-0.314843 1.213951,-0.745953 1.880605,-0.98186 0.167781,-0.05937 -0.225239,0.277008 -0.317992,0.428903 -0.108249,0.17727 -0.188624,0.370125 -0.282935,0.555191 -0.465277,1.226378 -0.768228,2.596364 -0.18362,3.823017 0.109577,0.08637 0.198874,0.208076 0.328726,0.259114 0.311425,0.122413 0.552675,-0.02774 0.816602,-0.169045 0.174974,-0.09368 0.68626,-0.398465 0.50986,-0.307509 -1.633937,0.8425 -2.117685,1.304147 -1.094856,0.447384 1.27514,-1.137137 2.74489,-2.114251 4.338531,-2.744285 0.338116,0.0079 0.658485,0.115287 0.927865,0.318368 -0.0427,0.01228 0.105121,0.05455 0.07575,0.07421 -1.748602,1.170731 -2.021149,2.156153 -3.078813,0.831091 -0.715968,-1.102987 -1.028163,-2.398332 -1.120328,-3.6957 0.03615,-0.412959 0.0241,-0.686393 0.194797,-1.071211 0.535477,-1.207301 2.872893,-2.09314 4.033941,-2.581365 1.020746,-0.326207 2.03469,-0.671417 3.044851,-1.028903 0,0 -1.971244,1.536289 -1.971244,1.536289 v 0 c -1.013224,0.351481 -2.032431,0.685406 -3.041173,1.049404 -1.198838,0.539417 -0.893821,0.433306 0.971891,-0.687162 0.147164,-0.08838 -0.307676,0.158882 -0.438555,0.269959 -0.412753,0.350306 -0.506415,0.847368 -0.558313,1.357453 0.05322,1.244801 0.349507,2.501363 1.065839,3.539905 0.185603,0.207058 0.231312,0.326221 0.496533,0.403273 0.0594,0.01725 0.234101,-0.0371 0.185553,0.0013 -1.807546,1.426914 -1.361596,1.931866 -2.044364,1.391666 -0.230177,-0.147722 -0.491792,-0.20827 -0.758029,-0.11915 -0.909907,0.40754 -0.147812,0.0761 1.662417,-1.006594 0.117194,-0.0701 -0.244935,0.121774 -0.360799,0.194051 -0.466572,0.291057 -0.889283,0.655346 -1.297022,1.021217 -1.239882,1.124469 -0.462089,0.47657 -3.196955,2.081316 -0.692825,0.406532 -1.325126,0.550997 -1.89548,-0.118258 -0.59799,-1.297258 -0.354537,-2.708892 0.09461,-4.026863 0.694865,-1.585093 0.962644,-1.408401 3.012263,-2.633763 0.292484,-0.174861 0.608904,-0.100042 0.893413,0.02801 0.505127,0.311848 0.755002,0.759293 0.692444,1.367406 -0.114599,1.766099 -0.706223,1.791581 -2.755122,2.74301 -0.740606,0.154294 -1.479987,-0.100151 -2.213277,-0.210646 0,0 2.103888,-1.466001 2.103888,-1.466001 z"
       inkscape:connector-curvature="0" />
    <rect
       style="opacity:0.87999998;fill:#ff0000;fill-opacity:1;stroke:none;stroke-width:0.76499999;stroke-miterlimit:4;stroke-dasharray:none;stroke-dashoffset:0;stroke-opacity:1"
       id="rect838"
       width="113.86276"
       height="107.80162"
       x="20.781036"
       y="66.243912" />
    <path
       style="fill:none;stroke:#e50000;stroke-width:4.365;stroke-linecap:butt;stroke-linejoin:miter;stroke-opacity:0.98431373;stroke-miterlimit:4;stroke-dasharray:none"
       d="m 130.74735,129.88583 c 1.73176,0.43294 15.58578,0 15.58578,0 v -19.48222"
       id="path840"
       inkscape:connector-curvature="0" />
  </g>
</svg>
