<?xml version="1.0" encoding="UTF-8" standalone="no"?>
<!-- Created with Inkscape (http://www.inkscape.org/) -->

<svg
   xmlns:dc="http://purl.org/dc/elements/1.1/"
   xmlns:cc="http://creativecommons.org/ns#"
   xmlns:rdf="http://www.w3.org/1999/02/22-rdf-syntax-ns#"
   xmlns:svg="http://www.w3.org/2000/svg"
   xmlns="http://www.w3.org/2000/svg"
   xmlns:sodipodi="http://sodipodi.sourceforge.net/DTD/sodipodi-0.dtd"
   xmlns:inkscape="http://www.inkscape.org/namespaces/inkscape"
   width="149.761mm"
   height="135.27583mm"
   viewBox="0 0 149.761 135.27583"
   version="1.1"
   id="svg848"
   inkscape:version="0.92.2 5c3e80d, 2017-08-06"
   sodipodi:docname="cassette_load.svg">
  <defs
     id="defs842" />
  <sodipodi:namedview
     id="base"
     pagecolor="#ffffff"
     bordercolor="#666666"
     borderopacity="1.0"
     inkscape:pageopacity="0.0"
     inkscape:pageshadow="2"
     inkscape:zoom="0.43213707"
     inkscape:cx="225.8097"
     inkscape:cy="206.61688"
     inkscape:document-units="mm"
     inkscape:current-layer="layer1"
     showgrid="false"
     inkscape:window-width="1280"
     inkscape:window-height="755"
     inkscape:window-x="-3"
     inkscape:window-y="145"
     inkscape:window-maximized="0"
     fit-margin-top="0"
     fit-margin-left="0"
     fit-margin-right="0"
     fit-margin-bottom="0" />
  <metadata
     id="metadata845">
    <rdf:RDF>
      <cc:Work
         rdf:about="">
        <dc:format>image/svg+xml</dc:format>
        <dc:type
           rdf:resource="http://purl.org/dc/dcmitype/StillImage" />
        <dc:title></dc:title>
      </cc:Work>
    </rdf:RDF>
  </metadata>
  <g
     inkscape:label="Layer 1"
     inkscape:groupmode="layer"
     id="layer1"
     transform="translate(-19.388941,-4.0446726)">
    <rect
       style="opacity:0.87999998;fill:#000000;fill-opacity:1;stroke:#20ec30;stroke-width:0.76499999;stroke-miterlimit:4;stroke-dasharray:none;stroke-dashoffset:0;stroke-opacity:1"
       id="rect812"
       width="139.507"
       height="91.450851"
       x="19.771441"
       y="31.134809" />
    <rect
       style="opacity:0.87999998;fill:#ff0000;fill-opacity:1;stroke:none;stroke-width:0.76499999;stroke-miterlimit:4;stroke-dasharray:none;stroke-dashoffset:0;stroke-opacity:1"
       id="rect838"
       width="113.86276"
       height="79.227692"
       x="-144.75771"
       y="-116.18816"
       transform="scale(-1)" />
    <path
       style="fill:none;stroke:#e50000;stroke-width:4.36499977;stroke-linecap:butt;stroke-linejoin:miter;stroke-miterlimit:4;stroke-dasharray:none;stroke-opacity:0.98431373"
       d="m 100.47774,22.120293 c -1.731757,-0.43294 -15.585777,0 -15.585777,0 v 19.48222"
       id="path840"
       inkscape:connector-curvature="0" />
    <path
       style="opacity:1;vector-effect:none;fill:#000000;fill-opacity:0.85786803;stroke:#9acd32;stroke-width:0.69999999;stroke-linecap:round;stroke-linejoin:miter;stroke-miterlimit:2;stroke-dasharray:none;stroke-dashoffset:0;stroke-opacity:1;paint-order:stroke fill markers"
       id="path831"
       d="m 119.50549,16.043754 c -0.87019,-0.05594 -1.51472,0.03782 -2.31405,0.387287 0.17966,-0.210982 -1.00513,0.668741 -0.73806,0.527077 0.23083,-0.122448 0.37976,-0.421841 0.63908,-0.453978 0.15774,-0.01955 -0.17749,0.264577 -0.25042,0.405812 -0.20746,0.401774 -0.19661,0.482768 -0.29761,0.92281 -0.11286,0.88459 0.15742,1.727746 0.87964,2.286478 0.14514,0.112288 0.31182,0.193568 0.46773,0.290352 1.0236,0.48885 1.98386,0.354266 2.92643,-0.264874 0.20483,-0.134548 0.38562,-0.302551 0.57843,-0.453827 -0.13456,0.08316 -0.42078,0.40675 -0.40368,0.249491 0.0265,-0.243167 0.30758,-0.381555 0.44038,-0.586965 0.34635,-0.535705 0.63352,-1.163888 0.57392,-1.819782 -0.0163,-0.17943 -0.0883,-0.349346 -0.13248,-0.524019 -0.0917,-0.152569 -0.15866,-0.323117 -0.27518,-0.457705 -0.61135,-0.706152 -1.63947,-0.903909 -2.51678,-0.732777 -0.30427,0.05935 -0.59428,0.176766 -0.89142,0.265148 -0.30232,0.146283 -0.60465,0.292565 -0.90698,0.438848 0,0 0.81726,-0.89303 0.81726,-0.89303 v 0 c 0.3086,-0.14335 0.6172,-0.2867 0.9258,-0.430049 0.30576,-0.08489 0.60453,-0.200985 0.91729,-0.254658 0.92457,-0.158671 1.98814,0.08244 2.62518,0.817305 0.12441,0.143518 0.19802,0.324181 0.29703,0.486271 0.0506,0.185335 0.12982,0.365149 0.15183,0.556004 0.0937,0.812089 -0.41511,1.920826 -0.97486,2.490261 -0.46074,0.468723 -0.97437,0.882357 -1.46155,1.323536 -0.19906,0.147454 -0.3863,0.312361 -0.59717,0.442362 -0.98959,0.610088 -1.98273,0.693594 -3.02539,0.181245 -0.16181,-0.10298 -0.33468,-0.190341 -0.48541,-0.308939 -0.74531,-0.586439 -1.05561,-1.457537 -0.96068,-2.384193 0.26971,-1.389823 0.57744,-1.481388 1.76617,-2.539353 0.33446,-0.297675 0.38304,-0.296313 0.76735,-0.505497 0.81241,-0.326269 1.49468,-0.40016 2.36544,-0.367887 0,0 -0.90724,0.907246 -0.90724,0.907246 z"
       inkscape:connector-curvature="0" />
    <path
       style="opacity:1;vector-effect:none;fill:#000000;fill-opacity:0.85786803;stroke:#9acd32;stroke-width:0.69999999;stroke-linecap:round;stroke-linejoin:miter;stroke-miterlimit:2;stroke-dasharray:none;stroke-dashoffset:0;stroke-opacity:1;paint-order:stroke fill markers"
       id="path833"
       d="m 125.20157,15.067594 c -0.0484,2.048497 -0.0381,4.096411 0.0298,6.14416 0.0617,1.582176 0.11926,3.164526 0.1639,4.747284 0.0297,0.198203 -0.007,0.403837 0.0287,0.601779 0,0 -1.04332,0.767254 -1.04332,0.767254 v 0 c 0.007,-0.209833 -8e-5,-0.419941 0.002,-0.629795 -0.0196,-1.593575 -0.064,-3.186592 -0.11776,-4.779365 -0.0582,-2.034016 -0.0697,-4.067874 -0.0935,-6.102464 0,0 1.03071,-0.748853 1.03071,-0.748853 z"
       inkscape:connector-curvature="0" />
    <path
       style="opacity:1;vector-effect:none;fill:#000000;fill-opacity:0.85786803;stroke:#9acd32;stroke-width:0.69999999;stroke-linecap:round;stroke-linejoin:miter;stroke-miterlimit:2;stroke-dasharray:none;stroke-dashoffset:0;stroke-opacity:1;paint-order:stroke fill markers"
       id="path835"
       d="m 123.81679,14.481752 c 0.80635,-0.942325 1.79184,-1.846694 2.98582,-2.254598 0.19486,-0.06657 0.39842,-0.104255 0.59763,-0.156383 0.7706,-0.07169 1.56993,0.10848 2.00915,0.811848 0.27786,0.444956 0.24457,0.682374 0.3038,1.19398 -0.0291,0.233112 -0.0351,0.470288 -0.0873,0.699336 -0.22515,0.987919 -0.82097,2.004169 -1.57358,2.683625 -0.48516,0.437999 -1.00525,0.83568 -1.50787,1.25352 -0.766,0.417005 -0.37879,0.260555 -1.1538,0.488296 0,0 0.85622,-0.909464 0.85622,-0.909464 v 0 c 0.74377,-0.244588 0.37106,-0.08163 1.10927,-0.508583 -0.11689,0.107885 -0.44622,0.450821 -0.35067,0.323656 0.15606,-0.207676 0.36927,-0.366759 0.534,-0.567623 0.64126,-0.781908 1.08358,-1.709309 1.17542,-2.72135 -0.0444,-0.471702 -0.009,-0.715735 -0.26181,-1.127714 -0.41279,-0.672509 -1.18892,-0.806031 -1.9095,-0.715506 -0.54864,0.159025 -0.62618,0.150739 -1.13206,0.419299 -0.38872,0.206364 -1.00797,0.697844 0.034,-0.167807 0.2017,-0.167576 -0.69229,0.60455 -0.54856,0.563876 0,0 -1.08013,0.691592 -1.08013,0.691592 z"
       inkscape:connector-curvature="0" />
    <path
       style="opacity:1;vector-effect:none;fill:#000000;fill-opacity:0.85786803;stroke:#9acd32;stroke-width:0.69999999;stroke-linecap:round;stroke-linejoin:miter;stroke-miterlimit:2;stroke-dasharray:none;stroke-dashoffset:0;stroke-opacity:1;paint-order:stroke fill markers"
       id="path837"
       d="m 132.46458,15.569447 c 0.78569,-0.0471 1.53857,-0.285633 2.22382,-0.665239 0.74206,-0.584773 -0.32478,0.288441 -0.50541,0.407704 -0.0686,0.0453 0.10817,-0.125793 0.14598,-0.198797 0.13012,-0.251248 -0.003,-0.437659 -0.13224,-0.65035 -0.60267,-0.707422 -1.53075,-0.840502 -2.40918,-0.8462 -0.4055,0.06786 -0.60241,0.06898 -0.97439,0.256 -0.14841,0.07462 -0.54167,0.382843 -0.41648,0.273659 1.05953,-0.924065 0.51604,-0.374997 0.32294,-0.0035 -0.0833,0.160192 -0.13719,0.333993 -0.20579,0.500989 -0.24652,0.950383 -0.17728,2.052021 0.54682,2.79429 0.15851,0.162485 0.3569,0.280582 0.53536,0.420872 0.21946,0.109422 0.43893,0.218844 0.6584,0.328266 0,0 -0.91205,0.830779 -0.91205,0.830779 v 0 c -0.22609,-0.114654 -0.45219,-0.229307 -0.67828,-0.343961 -0.18679,-0.14779 -0.39382,-0.273097 -0.56037,-0.443369 -0.74922,-0.765948 -0.85437,-1.894704 -0.62877,-2.889571 0.0961,-0.259873 0.24815,-0.760758 0.45466,-0.97318 0.91085,-0.936925 1.50135,-1.512713 2.74612,-1.636405 0.92179,0.02588 1.87456,0.190489 2.50717,0.926609 0.1213,0.187486 0.23051,0.302151 0.25292,0.531843 0.0608,0.623139 -1.14217,1.316097 -1.59787,1.651885 -0.71141,0.359743 -1.48068,0.5916 -2.28061,0.634879 0,0 0.90725,-0.907246 0.90725,-0.907246 z"
       inkscape:connector-curvature="0" />
    <path
       style="opacity:1;vector-effect:none;fill:#000000;fill-opacity:0.85786803;stroke:#9acd32;stroke-width:0.69999999;stroke-linecap:round;stroke-linejoin:miter;stroke-miterlimit:2;stroke-dasharray:none;stroke-dashoffset:0;stroke-opacity:1;paint-order:stroke fill markers"
       id="path839"
       d="m 136.46468,19.018843 c -0.17516,-0.811823 -0.23619,-1.661288 0.003,-2.469689 0.0554,-0.187337 0.1428,-0.363662 0.2142,-0.545493 0.1052,-0.164508 0.19567,-0.339417 0.31559,-0.493523 0.12185,-0.156598 0.25601,-0.305585 0.40669,-0.434681 0.71642,-0.613774 1.48678,-1.437291 2.51391,-1.463276 0.1885,-0.0048 0.37459,0.04363 0.56188,0.06545 1.4789,0.495862 2.07765,1.724924 2.58787,3.093598 0,0 -0.97109,0.759373 -0.97109,0.759373 v 0 c -0.48385,-1.325975 -1.06086,-2.533271 -2.50971,-2.977091 -0.50024,-0.03803 -0.58312,-0.09497 -1.07209,0.0732 -0.17733,0.06099 -0.46359,0.427051 -0.50665,0.244536 -0.0491,-0.208191 0.295,-0.311029 0.4584,-0.449076 0.29541,-0.249576 -1.13681,1.035993 -0.74699,0.88769 -0.0756,0.17555 -0.16821,0.344726 -0.22686,0.526649 -0.25219,0.782174 -0.20287,1.618535 -0.0109,2.404693 0,0 -1.01698,0.777645 -1.01698,0.777645 z"
       inkscape:connector-curvature="0" />
    <path
       style="opacity:1;vector-effect:none;fill:#000000;fill-opacity:0.85786803;stroke:#9acd32;stroke-width:0.69999999;stroke-linecap:round;stroke-linejoin:miter;stroke-miterlimit:2;stroke-dasharray:none;stroke-dashoffset:0;stroke-opacity:1;paint-order:stroke fill markers"
       id="path841"
       d="m 150.65431,14.952471 c 0.73745,0.136777 1.44656,-0.02032 2.11729,-0.325631 0.0883,-0.06741 0.3518,-0.271499 0.26494,-0.202223 -0.24796,0.197772 -0.47424,0.428068 -0.74828,0.587743 -0.086,0.05013 0.1222,-0.15895 0.16591,-0.24842 0.14762,-0.302155 0.12284,-0.561555 0.0522,-0.875487 -0.24844,-0.521991 -0.77999,-0.894861 -1.37955,-0.852407 -0.1327,0.0094 -0.25929,0.05967 -0.38894,0.08951 0.14723,-0.224339 -0.99528,0.623929 -0.73492,0.487445 0.23007,-0.120608 0.37957,-0.428844 0.63874,-0.446446 0.16273,-0.01105 -0.17958,0.273408 -0.25088,0.420103 -0.20194,0.415482 -0.20119,0.543452 -0.29709,0.990623 -0.10913,0.875961 0.19466,1.760247 1.0561,2.137079 0.18622,0.08146 0.39126,0.110374 0.58689,0.165562 0.22716,0.01925 0.45432,0.03851 0.68148,0.05776 0,0 -0.88371,0.867473 -0.88371,0.867473 v 0 c -0.23416,-0.02365 -0.46832,-0.04729 -0.70248,-0.07093 -0.20475,-0.06277 -0.41959,-0.09905 -0.61425,-0.188318 -0.89144,-0.408798 -1.24603,-1.325115 -1.15216,-2.252249 0.27135,-1.455404 0.51495,-1.522117 1.76579,-2.627706 0.3405,-0.300971 0.3788,-0.279784 0.78268,-0.450131 0.13939,-0.02129 0.27716,-0.06238 0.41816,-0.06387 0.64911,-0.0069 1.20199,0.405751 1.48415,0.964142 0.0291,0.106436 0.0732,0.209866 0.0873,0.31931 0.1317,1.026249 -0.95543,1.639296 -1.69114,2.123671 -0.6977,0.286522 -1.42515,0.411606 -2.17815,0.287566 0,0 0.91991,-0.894169 0.91991,-0.894169 z"
       inkscape:connector-curvature="0" />
    <path
       style="opacity:1;vector-effect:none;fill:#000000;fill-opacity:0.85786803;stroke:#9acd32;stroke-width:0.69999999;stroke-linecap:round;stroke-linejoin:miter;stroke-miterlimit:2;stroke-dasharray:none;stroke-dashoffset:0;stroke-opacity:1;paint-order:stroke fill markers"
       id="path843"
       d="m 155.55433,18.193669 c -0.0372,-0.926519 0.0787,-1.765002 0.40351,-2.633663 0.46442,-1.000104 1.40784,-2.215587 2.50929,-2.464536 0.14501,-0.03277 0.29636,-0.02397 0.44454,-0.03596 1.14712,0.118427 1.84636,0.944844 2.40027,1.87751 0.30131,0.678038 0.16982,0.335453 0.39649,1.026977 0,0 -0.98973,0.767228 -0.98973,0.767228 v 0 c -0.21391,-0.678596 -0.0889,-0.342759 -0.37698,-1.006838 -0.52739,-0.895299 -1.19981,-1.699328 -2.31172,-1.763295 -0.13945,0.02026 -0.28327,0.02064 -0.41834,0.06077 -0.24174,0.07182 -1.23772,0.690786 0.21457,-0.361251 0.12478,-0.09039 -0.22283,0.214111 -0.31917,0.334353 -0.25235,0.314935 -0.32681,0.507814 -0.50946,0.866734 -0.33937,0.848458 -0.47009,1.662479 -0.40345,2.57649 0,0 -1.03982,0.755476 -1.03982,0.755476 z"
       inkscape:connector-curvature="0" />
    <path
       style="opacity:1;vector-effect:none;fill:#000000;fill-opacity:0.85786803;stroke:#9acd32;stroke-width:0.69999999;stroke-linecap:round;stroke-linejoin:miter;stroke-miterlimit:2;stroke-dasharray:none;stroke-dashoffset:0;stroke-opacity:1;paint-order:stroke fill markers"
       id="path845"
       d="m 166.49701,14.062804 c -0.40139,-0.04535 -0.80967,-0.139464 -1.21565,-0.132796 -0.29013,0.0048 -0.467,0.06093 -0.74989,0.125052 -0.2808,0.118818 -0.4826,0.192647 -0.74592,0.35199 -0.12305,0.07446 -0.46207,0.34151 -0.35431,0.246252 1.16671,-1.031377 0.54147,-0.425691 0.33737,-0.1263 -0.0847,0.124324 -0.14994,0.260916 -0.22491,0.391375 -0.28154,0.63205 -0.45863,1.412814 -0.0423,2.034198 0.0814,0.121489 0.19257,0.220144 0.28885,0.330216 1.234,0.870754 2.10078,0.658331 3.39529,0.05606 0,0 -0.83778,0.911733 -0.83778,0.911733 v 0 c -1.38079,0.599478 -2.23465,0.754194 -3.52029,-0.156229 -0.10393,-0.117933 -0.22306,-0.224047 -0.3118,-0.353797 -0.44203,-0.646283 -0.30703,-1.456876 -0.0266,-2.134283 0.62001,-1.174708 1.67565,-2.024744 2.91741,-2.463415 0.6757,-0.132331 1.33684,-0.0933 2.0141,0.02637 0,0 -0.92359,0.893577 -0.92359,0.893577 z"
       inkscape:connector-curvature="0" />
    <path
       style="opacity:1;vector-effect:none;fill:#000000;fill-opacity:0.85786803;stroke:#9acd32;stroke-width:0.69999999;stroke-linecap:round;stroke-linejoin:miter;stroke-miterlimit:2;stroke-dasharray:none;stroke-dashoffset:0;stroke-opacity:1;paint-order:stroke fill markers"
       id="path847"
       d="m 166.7682,4.3278282 c 0.16504,1.8970519 0.56166,3.7718123 0.91385,5.6417127 0.39703,2.1943501 0.82953,4.3819241 1.09615,6.5969041 0,0 -0.98845,0.735291 -0.98845,0.735291 v 0 c -0.23533,-2.225504 -0.63911,-4.425633 -1.04203,-6.625965 -0.36216,-1.8590041 -0.76359,-3.7156083 -1.01934,-5.5924664 0,0 1.03982,-0.7554764 1.03982,-0.7554764 z"
       inkscape:connector-curvature="0" />
    <path
       style="opacity:1;vector-effect:none;fill:#000000;fill-opacity:0.85786803;stroke:#9acd32;stroke-width:0.69999999;stroke-linecap:round;stroke-linejoin:miter;stroke-miterlimit:2;stroke-dasharray:none;stroke-dashoffset:0;stroke-opacity:1;paint-order:stroke fill markers"
       id="path849"
       d="m 113.22155,22.938335 c -0.52701,-0.03549 -1.05222,0.04235 -1.51467,0.313212 -0.14905,0.0873 -0.56083,0.403512 -0.42016,0.303275 0.1755,-0.125064 0.34978,-0.251838 0.52468,-0.377757 -0.92045,1.075693 -1.39378,2.391928 -1.72652,3.745554 0,0 -1.0228,0.706191 -1.0228,0.706191 v 0 c 0.33319,-1.363819 0.7904,-2.692383 1.68547,-3.800898 1.18819,-1.050061 1.78378,-1.88465 3.39391,-1.783747 0,0 -0.91991,0.89417 -0.91991,0.89417 z"
       inkscape:connector-curvature="0" />
    <path
       style="opacity:1;vector-effect:none;fill:#000000;fill-opacity:0.85786803;stroke:#9acd32;stroke-width:0.69999999;stroke-linecap:round;stroke-linejoin:miter;stroke-miterlimit:2;stroke-dasharray:none;stroke-dashoffset:0;stroke-opacity:1;paint-order:stroke fill markers"
       id="path851"
       d="m 106.49209,24.8238 c 0.69818,0.713236 1.24787,1.543575 1.74658,2.403084 0.25781,0.483135 0.49675,0.977471 0.69502,1.488223 0.0407,0.178305 0.1234,0.03663 0.23238,-0.06408 -1.62701,1.48581 -0.22387,0.06109 0.025,-0.21922 0,0 1.05767,-0.657813 1.05767,-0.657813 v 0 c -0.59493,0.689034 -1.15799,1.312352 -1.93504,1.839053 -0.17628,0.09065 -0.34805,0.124489 -0.39661,-0.10427 -0.17142,-0.516093 -0.40268,-1.010782 -0.65302,-1.492747 -0.48709,-0.849101 -1.0209,-1.675455 -1.73867,-2.351353 0,0 0.96666,-0.84088 0.96666,-0.84088 z"
       inkscape:connector-curvature="0" />
    <path
       style="opacity:1;vector-effect:none;fill:#000000;fill-opacity:0.85786803;stroke:#9acd32;stroke-width:0.69999999;stroke-linecap:round;stroke-linejoin:miter;stroke-miterlimit:2;stroke-dasharray:none;stroke-dashoffset:0;stroke-opacity:1;paint-order:stroke fill markers"
       id="path853"
       d="m 97.443358,133.33729 c -0.738238,-0.18406 -1.406658,-0.008 -2.085438,0.28927 -0.132086,0.0911 -0.515104,0.38114 -0.396256,0.27333 0.179403,-0.16273 0.339309,-0.40409 0.578985,-0.43908 0.175196,-0.0256 -0.239506,0.2618 -0.343945,0.40477 -0.330936,0.45303 -0.503912,0.9212 -0.651145,1.45505 -0.151971,0.86319 0.04684,1.72001 0.803944,2.24074 0.151657,0.10431 0.325014,0.17288 0.487522,0.25932 0.734216,0.24986 1.434256,0.13239 2.175009,0.007 0,0 -0.853723,0.88143 -0.853723,0.88143 v 0 c -0.768426,0.11717 -1.492887,0.22428 -2.247439,-0.0494 -0.169916,-0.0929 -0.35125,-0.16754 -0.509746,-0.27884 -0.783471,-0.55019 -1.025494,-1.43993 -0.886804,-2.35009 0.04321,-0.17657 0.07179,-0.35738 0.129645,-0.52971 0.416907,-1.24191 1.484413,-2.13626 2.568007,-2.79905 0.705892,-0.2845 1.398156,-0.43083 2.154975,-0.25803 0,0 -0.923591,0.89358 -0.923591,0.89358 z"
       inkscape:connector-curvature="0" />
    <path
       style="opacity:1;vector-effect:none;fill:#000000;fill-opacity:0.85786803;stroke:#9acd32;stroke-width:0.69999999;stroke-linecap:round;stroke-linejoin:miter;stroke-miterlimit:2;stroke-dasharray:none;stroke-dashoffset:0;stroke-opacity:1;paint-order:stroke fill markers"
       id="path855"
       d="m 100.54816,129.46626 c 0.12512,1.30579 0.26776,2.61014 0.42445,3.91259 0.14107,1.37743 0.33929,2.75394 0.77965,4.07041 0,0 -0.99384,0.77123 -0.99384,0.77123 v 0 c -0.42633,-1.33267 -0.6244,-2.72108 -0.767741,-4.10976 -0.161256,-1.29137 -0.303427,-2.58507 -0.469583,-3.87576 0,0 1.027064,-0.76871 1.027064,-0.76871 z"
       inkscape:connector-curvature="0" />
    <path
       style="opacity:1;vector-effect:none;fill:#000000;fill-opacity:0.85786803;stroke:#9acd32;stroke-width:0.69999999;stroke-linecap:round;stroke-linejoin:miter;stroke-miterlimit:2;stroke-dasharray:none;stroke-dashoffset:0;stroke-opacity:1;paint-order:stroke fill markers"
       id="path857"
       d="m 105.24362,133.80376 c -0.57299,-0.0192 -1.12973,0.0854 -1.61906,0.38619 -0.0816,0.0731 -0.33601,0.27997 -0.24482,0.21925 0.25441,-0.16942 0.45525,-0.42639 0.7363,-0.54654 0.10955,-0.0468 -0.1284,0.20139 -0.18008,0.30875 -0.17232,0.35799 -0.23638,0.73947 -0.30145,1.12693 -0.12782,0.90421 0.0467,1.51657 0.69002,2.16362 0.612,0.42269 1.3507,0.59894 2.06438,0.31512 0.15387,-0.0612 0.29233,-0.15561 0.4385,-0.23342 0.12759,-0.1052 0.53378,-0.38298 0.38277,-0.31559 -0.22285,0.0994 -0.35985,0.42398 -0.60368,0.41417 -0.17036,-0.007 0.20054,-0.27701 0.28136,-0.42713 0.23777,-0.44168 0.28811,-0.84291 0.27473,-1.3326 -0.20176,-0.76358 -0.83131,-1.32922 -1.6001,-1.52253 -0.16389,-0.0412 -0.33613,-0.0354 -0.50419,-0.0532 -0.73429,0.0947 -0.371,0.007 -1.0879,0.27242 0,0 0.85206,-0.91111 0.85206,-0.91111 v 0 c 0.74831,-0.24374 0.37008,-0.16718 1.1333,-0.23649 0.17597,0.0257 0.3566,0.0294 0.52789,0.0773 0.81175,0.22659 1.45932,0.82347 1.69541,1.62836 0.009,0.15128 0.0359,0.30259 0.0265,0.45383 -0.0823,1.32373 -1.23631,2.16076 -2.22355,2.88016 -0.15377,0.072 -0.30059,0.1612 -0.46132,0.21593 -0.75727,0.25784 -1.52655,0.0442 -2.15777,-0.40496 -0.66054,-0.67333 -0.88372,-1.31317 -0.76186,-2.25746 0.21225,-1.43648 0.53085,-1.81379 1.8757,-2.77939 0.52133,-0.26972 1.08969,-0.36142 1.67572,-0.35045 0,0 -0.90884,0.90884 -0.90884,0.90884 z"
       inkscape:connector-curvature="0" />
    <path
       style="opacity:1;vector-effect:none;fill:#000000;fill-opacity:0.85786803;stroke:#9acd32;stroke-width:0.69999999;stroke-linecap:round;stroke-linejoin:miter;stroke-miterlimit:2;stroke-dasharray:none;stroke-dashoffset:0;stroke-opacity:1;paint-order:stroke fill markers"
       id="path859"
       d="m 110.6413,132.50249 c -0.31715,0.6822 -0.41655,1.11488 -0.009,1.77623 0.32324,0.41741 0.80334,0.6592 1.18783,1.00953 0.29007,0.26429 0.29404,0.30494 0.51916,0.62056 0.0983,0.26846 0.19078,0.42972 0.17097,0.72334 -0.0646,0.95784 -1.26571,1.61596 -1.85523,2.09036 -0.32084,0.17571 -0.68853,0.33147 -1.05961,0.19594 -0.10878,-0.0397 -0.19651,-0.12259 -0.29477,-0.18389 0,0 0.94555,-0.84916 0.94555,-0.84916 v 0 c 0.0856,0.0481 0.16263,0.1168 0.25693,0.14425 0.35389,0.10301 0.69603,-0.0832 0.98844,-0.25287 -0.20514,0.18846 -0.40411,0.38385 -0.61542,0.56537 -0.103,0.0885 0.20448,-0.18058 0.29014,-0.28594 0.33547,-0.41265 0.40646,-0.85505 0.19759,-1.34241 -0.21333,-0.30309 -0.21611,-0.34209 -0.49525,-0.59511 -0.39577,-0.35872 -0.8886,-0.60783 -1.2199,-1.03758 -0.44011,-0.69145 -0.38845,-1.13318 -0.0796,-1.87302 0,0 1.07239,-0.7056 1.07239,-0.7056 z"
       inkscape:connector-curvature="0" />
    <path
       style="opacity:1;vector-effect:none;fill:#000000;fill-opacity:0.85786803;stroke:#9acd32;stroke-width:0.69999999;stroke-linecap:round;stroke-linejoin:miter;stroke-miterlimit:2;stroke-dasharray:none;stroke-dashoffset:0;stroke-opacity:1;paint-order:stroke fill markers"
       id="path861"
       d="m 114.27019,135.34297 c 0.75975,0.23732 1.56052,0.2347 2.33771,0.10045 0.18898,-0.0458 0.43303,-0.0865 0.60605,-0.19213 0.0712,-0.0435 0.25403,-0.21599 0.18699,-0.16634 -1.22247,0.90539 -0.82895,0.8222 -0.64937,0.20663 0.0364,-0.71342 -0.46239,-1.14495 -1.02456,-1.48075 -0.45765,-0.18124 -0.97211,-0.24873 -1.4335,-0.0302 -0.10726,0.0508 -0.38641,0.27413 -0.2978,0.19517 0.21925,-0.19535 0.46095,-0.36394 0.69143,-0.54591 -0.58685,0.71844 -0.6953,1.49502 -0.52118,2.38466 0.33626,0.96713 1.08749,1.14858 1.99581,1.37796 0,0 -0.89906,0.85515 -0.89906,0.85515 v 0 c -0.95704,-0.24741 -1.73583,-0.4615 -2.10133,-1.47146 -0.20102,-0.92454 -0.11256,-1.70173 0.44371,-2.48847 1.11473,-0.95007 1.62576,-1.70149 3.06391,-1.12151 0.60688,0.37253 1.11428,0.83899 1.13369,1.60023 -0.20797,0.98963 -1.14193,1.6056 -2.07371,1.78372 -0.79956,0.11358 -1.61571,0.10252 -2.39586,-0.12859 0,0 0.93707,-0.87863 0.93707,-0.87863 z"
       inkscape:connector-curvature="0" />
    <path
       style="opacity:1;vector-effect:none;fill:#000000;fill-opacity:0.85786803;stroke:#9acd32;stroke-width:0.69999999;stroke-linecap:round;stroke-linejoin:miter;stroke-miterlimit:2;stroke-dasharray:none;stroke-dashoffset:0;stroke-opacity:1;paint-order:stroke fill markers"
       id="path863"
       d="m 121.24822,134.1698 c -0.79162,-0.25979 -1.40013,-0.22616 -2.17252,0.0676 0.18374,-0.21309 -0.85847,0.60324 -0.65078,0.44287 0.23134,-0.17863 0.43672,-0.39807 0.69544,-0.53404 0.10217,-0.0537 -0.14592,0.17962 -0.20719,0.27744 -0.17376,0.27738 -0.15907,0.31527 -0.24237,0.62706 -0.0983,0.8112 0.45379,1.32437 1.10006,1.69849 0.97455,0.40865 1.56347,0.40508 2.43009,-0.20628 -0.223,0.17659 -0.446,0.35317 -0.66899,0.52975 0,0 1.08039,-0.65663 1.08039,-0.65663 v 0 c -0.41673,0.35662 -0.83346,0.71324 -1.25019,1.06986 -0.12071,0.0747 -0.23428,0.16245 -0.36213,0.22418 -0.70283,0.33938 -1.48697,0.2002 -2.16695,-0.11765 -0.68418,-0.40626 -1.26901,-0.95959 -1.20558,-1.81989 0.0238,-0.11624 0.0349,-0.23579 0.0714,-0.3487 0.31684,-0.98224 1.38362,-1.61527 2.23911,-2.10999 0.79643,-0.26623 1.44288,-0.27266 2.24731,-0.0227 0,0 -0.93707,0.87863 -0.93707,0.87863 z"
       inkscape:connector-curvature="0" />
    <path
       style="opacity:1;vector-effect:none;fill:#000000;fill-opacity:0.85786803;stroke:#9acd32;stroke-width:0.69999999;stroke-linecap:round;stroke-linejoin:miter;stroke-miterlimit:2;stroke-dasharray:none;stroke-dashoffset:0;stroke-opacity:1;paint-order:stroke fill markers"
       id="path865"
       d="m 121.34962,127.72768 c 0.32543,1.25052 0.70431,2.48595 1.03248,3.73559 0.37972,1.62624 0.7891,3.24434 1.22629,4.85599 0.0594,0.20574 0.11878,0.41147 0.17818,0.61721 0,0 -0.98476,0.75801 -0.98476,0.75801 v 0 c -0.0581,-0.2076 -0.11626,-0.41519 -0.1744,-0.62279 -0.42131,-1.61735 -0.8359,-3.23593 -1.21712,-4.86336 -0.32842,-1.24126 -0.70996,-2.46801 -1.07679,-3.69829 0,0 1.01612,-0.78236 1.01612,-0.78236 z"
       inkscape:connector-curvature="0" />
    <path
       style="opacity:1;vector-effect:none;fill:#000000;fill-opacity:0.85786803;stroke:#9acd32;stroke-width:0.69999999;stroke-linecap:round;stroke-linejoin:miter;stroke-miterlimit:2;stroke-dasharray:none;stroke-dashoffset:0;stroke-opacity:1;paint-order:stroke fill markers"
       id="path867"
       d="m 128.79093,134.87637 c 0.75157,0.0603 1.45581,-0.16549 2.11465,-0.50478 0.75826,-0.56179 -0.30859,0.29806 -0.48338,0.42093 -0.0693,0.0487 0.11421,-0.12578 0.16309,-0.19499 0.14218,-0.20131 0.17531,-0.36418 0.17135,-0.60359 -0.14493,-0.60579 -0.792,-0.77537 -1.32418,-0.90762 -0.37684,-0.0622 -0.75428,-0.0247 -1.1062,0.13043 -0.11277,0.0497 -0.40771,0.27117 -0.32082,0.18376 1.45303,-1.46183 0.50894,-0.33629 0.40447,-0.20641 -0.37638,0.65038 -0.5718,1.43852 -0.28281,2.16702 0.0544,0.13708 0.1429,0.258 0.21435,0.387 0.52988,0.62833 1.07011,0.63975 1.83667,0.59277 0,0 -0.8785,0.88633 -0.8785,0.88633 v 0 c -0.84657,0.024 -1.35157,-0.009 -1.9375,-0.68798 -0.0781,-0.13728 -0.17369,-0.26597 -0.23425,-0.41182 -0.31094,-0.74884 -0.14217,-1.56575 0.21474,-2.25901 0.72257,-1.01173 1.73285,-1.86118 3.00751,-1.65474 0.59118,0.1566 1.25103,0.36872 1.43712,1.02131 0.10675,1.00567 -0.99896,1.59199 -1.73543,2.07267 -0.68543,0.32546 -1.41387,0.52883 -2.18079,0.46289 0,0 0.91991,-0.89417 0.91991,-0.89417 z"
       inkscape:connector-curvature="0" />
    <path
       style="opacity:1;vector-effect:none;fill:#000000;fill-opacity:0.85786803;stroke:#9acd32;stroke-width:0.69999999;stroke-linecap:round;stroke-linejoin:miter;stroke-miterlimit:2;stroke-dasharray:none;stroke-dashoffset:0;stroke-opacity:1;paint-order:stroke fill markers"
       id="path869"
       d="m 132.39304,136.14279 c 0.0885,-1.40894 1.13482,-1.91984 2.18525,-2.72889 0.78604,-0.33721 1.68352,-0.45609 2.45653,-0.005 0.14512,0.0848 0.26619,0.20523 0.39928,0.30785 0.53513,0.52454 0.76011,1.20985 0.95683,1.91088 0,0 -0.99317,0.76311 -0.99317,0.76311 v 0 c -0.18226,-0.67763 -0.38885,-1.34127 -0.90799,-1.84537 -0.12559,-0.0947 -0.23959,-0.20721 -0.37675,-0.28423 -0.75545,-0.42422 -1.63128,-0.26417 -2.37362,0.0901 0.18705,-0.18346 0.3846,-0.3568 0.56115,-0.55039 0.0993,-0.10891 -0.22869,0.18752 -0.32885,0.29566 -0.33131,0.35773 -0.5176,0.80668 -0.54065,1.29174 0,0 -1.03801,0.75415 -1.03801,0.75415 z"
       inkscape:connector-curvature="0" />
    <path
       style="opacity:1;vector-effect:none;fill:#000000;fill-opacity:0.85786803;stroke:#9acd32;stroke-width:0.69999999;stroke-linecap:round;stroke-linejoin:miter;stroke-miterlimit:2;stroke-dasharray:none;stroke-dashoffset:0;stroke-opacity:1;paint-order:stroke fill markers"
       id="path871"
       d="m 142.02926,133.95334 c -0.60056,-0.24543 -1.16974,-0.19228 -1.77019,0.006 0.13185,-0.21362 -0.76621,0.53299 -0.57227,0.40322 0.24504,-0.16398 0.44083,-0.40514 0.70756,-0.5308 0.10865,-0.0512 -0.14518,0.19196 -0.20696,0.29495 -0.16216,0.27031 -0.1792,0.36967 -0.2822,0.6668 -0.17346,0.90311 -0.003,1.38001 0.7398,1.91851 0.9269,0.42124 1.70016,0.12426 2.55699,-0.30198 0,0 -0.83875,0.91725 -0.83875,0.91725 v 0 c -0.9082,0.41898 -1.71292,0.68646 -2.66628,0.21965 -0.78547,-0.58389 -0.98289,-1.06788 -0.83931,-2.04169 0.33546,-1.09504 0.65952,-1.21431 1.66203,-2.09869 0.26505,-0.23381 0.29301,-0.22018 0.60949,-0.37125 0.62497,-0.18123 1.2196,-0.19608 1.83716,0.0392 0,0 -0.93707,0.87864 -0.93707,0.87864 z"
       inkscape:connector-curvature="0" />
    <path
       style="opacity:1;vector-effect:none;fill:#000000;fill-opacity:0.85786803;stroke:#9acd32;stroke-width:0.69999999;stroke-linecap:round;stroke-linejoin:miter;stroke-miterlimit:2;stroke-dasharray:none;stroke-dashoffset:0;stroke-opacity:1;paint-order:stroke fill markers"
       id="path873"
       d="m 142.34756,126.89006 c 0.31812,1.47371 0.68507,2.93551 1.05358,4.39727 0.33814,1.45379 0.75143,2.88643 1.23124,4.29938 0,0 -0.97574,0.75804 -0.97574,0.75804 v 0 c -0.46551,-1.42318 -0.87462,-2.86281 -1.21859,-4.32045 -0.37096,-1.45184 -0.74075,-2.90386 -1.10748,-4.3566 0,0 1.01699,-0.77764 1.01699,-0.77764 z"
       inkscape:connector-curvature="0" />
    <path
       style="opacity:1;vector-effect:none;fill:#ff0000;fill-opacity:0.85786803;stroke:#000000;stroke-width:0.69999999;stroke-linecap:round;stroke-linejoin:miter;stroke-miterlimit:2;stroke-dasharray:none;stroke-dashoffset:0;stroke-opacity:1;paint-order:stroke fill markers"
       id="path875"
       d="m 52.60431,67.065667 c -0.832485,-0.252992 -1.646278,-0.08624 -2.4241,0.248229 -0.140531,0.09592 -0.551923,0.397122 -0.421595,0.287743 0.184902,-0.155178 0.344726,-0.436065 0.585891,-0.425627 0.176152,0.0076 -0.21118,0.283757 -0.296312,0.43816 -0.284591,0.516155 -0.380529,1.040463 -0.440852,1.616877 0.0209,0.979948 0.504135,1.810197 1.460093,2.146271 0.202173,0.07108 0.41852,0.09242 0.627782,0.138631 0.79307,0.06103 1.507196,-0.184272 2.240182,-0.442545 0,0 -0.838285,0.895548 -0.838285,0.895548 v 0 c -0.755009,0.251579 -1.488572,0.490768 -2.299676,0.404736 -0.217199,-0.05276 -0.44201,-0.08063 -0.651602,-0.158289 -0.990981,-0.367194 -1.510938,-1.234345 -1.555758,-2.259502 0.01556,-0.192686 0.01416,-0.387499 0.04664,-0.578062 0.239186,-1.403085 1.169067,-2.281306 2.396038,-2.985802 0.811898,-0.319659 1.646917,-0.454242 2.503236,-0.207584 0,0 -0.931682,0.881216 -0.931682,0.881216 z"
       inkscape:connector-curvature="0" />
    <path
       style="opacity:1;vector-effect:none;fill:#ff0000;fill-opacity:0.85786803;stroke:#000000;stroke-width:0.69999999;stroke-linecap:round;stroke-linejoin:miter;stroke-miterlimit:2;stroke-dasharray:none;stroke-dashoffset:0;stroke-opacity:1;paint-order:stroke fill markers"
       id="path877"
       d="m 58.887798,66.44863 c -0.813638,-0.139597 -1.633452,-0.08922 -2.440924,0.05703 -0.142462,0.03954 -0.286906,0.07252 -0.427381,0.118615 -0.283663,0.09307 -0.486712,0.178202 -0.731824,0.349221 -0.10876,0.07588 -0.416709,0.327448 -0.306581,0.253561 0.738201,-0.495271 0.874948,-0.800251 0.488908,-0.187135 -0.363239,0.869336 -0.124286,1.570323 0.393472,2.304346 0.553958,0.546722 1.27417,0.894914 2.065486,0.724228 0.154665,-0.03336 0.299974,-0.100761 0.449961,-0.151143 0.14461,-0.0875 0.539554,-0.394364 0.433832,-0.26249 -0.149479,0.186454 -0.33201,0.435832 -0.570974,0.433559 -0.184396,-0.0019 0.238033,-0.282654 0.340823,-0.43575 0.29459,-0.438753 0.466164,-0.899843 0.604721,-1.403824 0.08769,-0.508915 0.06218,-1.015627 -0.209052,-1.462532 -0.263335,-0.352253 -0.944356,0.430607 0.91912,-0.78646 0.02755,-0.01799 -0.0163,0.06504 -0.01336,0.09782 0.01532,0.171069 0.07364,0.261072 0.144106,0.423227 0.412255,0.859007 1.000762,1.402231 1.816076,1.874849 0.700402,0.283659 0.343482,0.159644 1.070859,0.371763 0,0 -0.908225,0.857139 -0.908225,0.857139 v 0 c -0.740677,-0.224859 -0.376293,-0.09431 -1.093052,-0.391925 -0.832916,-0.489069 -1.444006,-1.04707 -1.883595,-1.918599 -0.01709,-0.03503 -0.261072,-0.549172 -0.210037,-0.599567 0.531104,-0.524407 0.817287,-1.222637 1.158097,-0.740096 0.28021,0.480685 0.330989,1.014733 0.244589,1.561741 -0.374137,1.507738 -1.266481,2.580902 -2.705801,3.296049 -0.156578,0.04389 -0.309287,0.105212 -0.469733,0.131667 -0.832261,0.137234 -1.579415,-0.243861 -2.155111,-0.818054 -0.543375,-0.763022 -0.810956,-1.495486 -0.483706,-2.418358 0.447889,-0.801923 0.145968,-0.347139 1.404982,-1.451753 0.427453,-0.375034 0.959996,-0.558972 1.507842,-0.674933 0.824466,-0.135271 1.656824,-0.171403 2.486409,-0.04637 0,0 -0.919914,0.89417 -0.919914,0.89417 z"
       inkscape:connector-curvature="0" />
    <path
       style="opacity:1;vector-effect:none;fill:#ff0000;fill-opacity:0.85786803;stroke:#000000;stroke-width:0.69999999;stroke-linecap:round;stroke-linejoin:miter;stroke-miterlimit:2;stroke-dasharray:none;stroke-dashoffset:0;stroke-opacity:1;paint-order:stroke fill markers"
       id="path879"
       d="m 65.651861,63.548952 c 0.09273,-0.09679 -0.668581,0.499476 -0.507109,0.367245 0.228013,-0.186725 0.437751,-0.401871 0.693315,-0.548646 0.114077,-0.06552 -0.178679,0.193707 -0.258017,0.298646 -0.201504,0.266526 -0.246454,0.384051 -0.396965,0.676577 -0.26697,0.727966 -0.490857,1.140936 0.09236,1.755531 0.418245,0.325218 0.948153,0.383175 1.446662,0.504804 0.440359,0.10744 0.392824,0.100888 0.814782,0.24035 0.868595,0.457497 1.027515,0.805799 0.628952,1.699705 -0.66738,0.935365 -1.661883,1.865654 -2.792101,2.183098 -0.130423,0.03663 -0.267589,0.04247 -0.401383,0.06371 -0.449691,-0.06652 -0.243756,0.0067 -0.621353,-0.209468 0,0 0.944176,-0.854001 0.944176,-0.854001 v 0 c 0.334516,0.173678 0.151083,0.117197 0.55494,0.153533 0.417854,-0.08628 0.384879,-0.05378 0.792287,-0.252995 0.144393,-0.07061 0.491294,-0.378584 0.421814,-0.233646 -0.10891,0.22719 -0.367524,0.344797 -0.555511,0.512541 -0.223218,0.199183 0.855784,-0.758685 0.601591,-0.666028 0.41161,-0.790813 0.336307,-1.119352 -0.494432,-1.532027 -0.772861,-0.251442 -1.632511,-0.311248 -2.309611,-0.786281 -0.627526,-0.662689 -0.459862,-1.080561 -0.179893,-1.883236 0.138319,-0.287541 0.19626,-0.437197 0.381619,-0.701854 0.510373,-0.728721 1.272445,-1.252811 2.008539,-1.73636 0,0 -0.864663,0.948803 -0.864663,0.948803 z"
       inkscape:connector-curvature="0" />
    <path
       style="opacity:1;vector-effect:none;fill:#ff0000;fill-opacity:0.85786803;stroke:#000000;stroke-width:0.69999999;stroke-linecap:round;stroke-linejoin:miter;stroke-miterlimit:2;stroke-dasharray:none;stroke-dashoffset:0;stroke-opacity:1;paint-order:stroke fill markers"
       id="path881"
       d="m 72.038193,61.974189 c -0.661789,0.760394 -1.110744,1.666706 -1.452189,2.607596 -0.230582,1.019149 -0.01064,1.422001 0.793509,2.026574 0.581213,0.402359 1.315397,0.676714 1.741636,1.271397 0.0709,0.09892 0.116371,0.213796 0.174556,0.320696 0.0205,0.118776 0.06459,0.235831 0.06155,0.35633 -0.02745,1.088739 -1.632445,2.138108 -2.4057,2.563572 -0.429858,0.19699 -0.908791,0.367622 -1.372058,0.150817 -0.12546,-0.05871 -0.222017,-0.1657 -0.333025,-0.248552 0,0 0.948975,-0.836311 0.948975,-0.836311 v 0 c 0.09887,0.07025 0.184767,0.163788 0.29659,0.210736 0.443585,0.186245 0.901116,-0.01916 1.298118,-0.20746 0.150436,-0.08978 0.517511,-0.431551 0.45131,-0.269349 -0.09053,0.221824 -0.324157,0.367406 -0.536567,0.47824 -0.143081,0.07466 0.224488,-0.233455 0.318651,-0.36453 0.227457,-0.316626 0.36621,-0.650454 0.283514,-1.038934 -0.0509,-0.09927 -0.08889,-0.206319 -0.152715,-0.297825 -0.413567,-0.592961 -1.154554,-0.852842 -1.721945,-1.25679 -0.841833,-0.6361 -1.103371,-1.080987 -0.885494,-2.15661 0.329091,-0.944486 0.767638,-1.856246 1.406742,-2.63348 0,0 1.084545,-0.676117 1.084545,-0.676117 z"
       inkscape:connector-curvature="0" />
    <path
       style="opacity:1;vector-effect:none;fill:#ff0000;fill-opacity:0.85786803;stroke:#000000;stroke-width:0.69999999;stroke-linecap:round;stroke-linejoin:miter;stroke-miterlimit:2;stroke-dasharray:none;stroke-dashoffset:0;stroke-opacity:1;paint-order:stroke fill markers"
       id="path883"
       d="m 75.948412,64.307727 c 0.924827,0.154636 1.640168,0.153739 2.550522,-0.0893 0.270966,-0.103923 0.548836,-0.194797 0.797447,-0.34953 0.108228,-0.06736 0.402791,-0.312671 0.302376,-0.234141 -1.163786,0.910151 -0.680088,0.638858 -0.440224,0.0809 0.07415,-0.785288 -0.618948,-1.099743 -1.251561,-1.31772 -0.671844,-0.16034 -1.313469,-0.0249 -1.896229,0.341837 -0.157922,0.09938 -0.622173,0.397438 -0.444614,0.34009 0.214855,-0.0694 0.374705,-0.252016 0.562057,-0.378024 -0.612714,0.80463 -0.958337,1.77826 -0.832813,2.797919 0.0249,0.202168 0.08265,0.398915 0.123981,0.598373 0.383162,1.040445 1.134123,1.749158 2.259758,1.924672 0.263811,0.04113 0.533435,0.02447 0.800151,0.03672 1.224354,-0.166082 0.608369,-0.04031 1.845857,-0.387408 0,0 -0.834244,0.880144 -0.834244,0.880144 v 0 c -1.261623,0.338238 -0.632836,0.217726 -1.884556,0.370846 -0.275489,-0.01701 -0.554394,-0.0046 -0.826473,-0.05104 -1.133817,-0.193598 -1.964741,-0.963086 -2.351837,-2.021027 -0.04575,-0.204671 -0.108151,-0.406324 -0.137263,-0.614016 -0.145275,-1.036402 0.175337,-2.037813 0.775227,-2.877365 1.246775,-1.144746 1.97953,-2.181945 3.762404,-1.822585 0.70721,0.255736 1.389427,0.618329 1.388414,1.46671 -0.351049,1.057502 -1.56301,1.775965 -2.584127,2.12489 -0.907333,0.216503 -1.689407,0.209502 -2.607842,0.07264 0,0 0.923589,-0.893577 0.923589,-0.893577 z"
       inkscape:connector-curvature="0" />
    <path
       style="opacity:1;vector-effect:none;fill:#ff0000;fill-opacity:0.85786803;stroke:#000000;stroke-width:0.69999999;stroke-linecap:round;stroke-linejoin:miter;stroke-miterlimit:2;stroke-dasharray:none;stroke-dashoffset:0;stroke-opacity:1;paint-order:stroke fill markers"
       id="path885"
       d="m 83.424852,55.277741 c 0.05883,1.909694 0.248081,3.811784 0.459454,5.709701 0.173762,1.715174 0.509098,3.412254 1.161889,5.011041 0.228724,0.429237 0.589451,1.307674 1.174347,1.362478 0.315011,0.02952 0.526085,-0.132739 0.791358,-0.26765 0,0 -0.85005,0.926518 -0.85005,0.926518 v 0 c -0.327239,0.135149 -0.507265,0.271073 -0.872072,0.200297 -0.650066,-0.126116 -0.948111,-0.95872 -1.217462,-1.455176 -0.648689,-1.616589 -0.986221,-3.328432 -1.153723,-5.059728 -0.201526,-1.889755 -0.385382,-3.780814 -0.528095,-5.675979 0,0 1.034354,-0.751502 1.034354,-0.751502 z"
       inkscape:connector-curvature="0" />
    <path
       style="opacity:1;vector-effect:none;fill:#ff0000;fill-opacity:0.85786803;stroke:#000000;stroke-width:0.69999999;stroke-linecap:round;stroke-linejoin:miter;stroke-miterlimit:2;stroke-dasharray:none;stroke-dashoffset:0;stroke-opacity:1;paint-order:stroke fill markers"
       id="path887"
       d="m 88.621935,51.761122 c -0.03808,2.043332 -0.0419,4.087133 -0.0442,6.130758 0.02056,2.167689 0.05809,4.34271 0.533004,6.465062 0.276108,0.850855 0.558514,2.071973 1.359757,2.609149 0.114731,0.07692 0.252473,0.112157 0.378711,0.168235 0.134022,0.01685 0.268044,0.03372 0.402066,0.05058 0,0 -0.906224,0.878787 -0.906224,0.878787 v 0 c -0.14206,-0.0259 -0.284118,-0.05182 -0.426178,-0.07773 -0.13377,-0.06677 -0.279455,-0.113673 -0.401312,-0.200292 C 88.6781,67.188972 88.430566,66.011282 88.133294,65.100322 87.659785,62.959493 87.65131,60.76619 87.62813,58.581809 c -0.0024,-2.022216 -0.0057,-4.044619 -0.0442,-6.066533 0,0 1.038,-0.754153 1.038,-0.754153 z"
       inkscape:connector-curvature="0" />
    <path
       style="opacity:1;vector-effect:none;fill:#ff0000;fill-opacity:0.85786803;stroke:#000000;stroke-width:0.69999999;stroke-linecap:round;stroke-linejoin:miter;stroke-miterlimit:2;stroke-dasharray:none;stroke-dashoffset:0;stroke-opacity:1;paint-order:stroke fill markers"
       id="path889"
       d="m 81.569234,58.862475 c 1.215556,0.04813 2.425125,-0.11439 3.63465,-0.211002 1.034245,-0.08071 2.070658,-0.126686 3.107012,-0.169318 0,0 -0.873731,0.880317 -0.873731,0.880317 v 0 c -1.03192,0.03503 -2.063731,0.07864 -3.093024,0.163004 -1.226336,0.104246 -2.450751,0.2628 -3.683746,0.245838 0,0 0.908839,-0.908839 0.908839,-0.908839 z"
       inkscape:connector-curvature="0" />
    <path
       style="opacity:1;vector-effect:none;fill:#ff0000;fill-opacity:0.85786803;stroke:#000000;stroke-width:0.69999999;stroke-linecap:round;stroke-linejoin:miter;stroke-miterlimit:2;stroke-dasharray:none;stroke-dashoffset:0;stroke-opacity:1;paint-order:stroke fill markers"
       id="path891"
       d="m 93.963714,62.575654 c 1.068818,0.154506 2.135256,-0.104318 3.133645,-0.471379 0.391822,-0.184844 0.55584,-0.239983 0.90206,-0.483294 0.109059,-0.07664 0.417976,-0.330655 0.30942,-0.253306 -1.423006,1.013949 -0.715566,0.76487 -0.669597,0.352679 0.0078,-0.06979 -0.02376,-0.138428 -0.03565,-0.20764 -0.57948,-0.734261 -1.611562,-0.860536 -2.48266,-0.946081 -0.619694,-0.008 -1.222923,0.125232 -1.76463,0.434887 -0.171797,0.0982 -0.642586,0.462137 -0.483704,0.344173 0.714346,-0.530371 0.61323,-0.506698 0.169937,0.135956 -0.497536,0.954368 -0.690896,2.099953 -0.154808,3.092823 0.105698,0.19576 0.264774,0.357592 0.397161,0.536387 0.211415,0.142621 0.402071,0.322358 0.634248,0.427861 1.49605,0.679812 3.213656,0.181213 4.704255,-0.21245 0,0 -0.811292,0.853665 -0.811292,0.853665 v 0 c -1.534292,0.392938 -3.281807,0.881022 -4.81317,0.175514 -0.244486,-0.112636 -0.445371,-0.302459 -0.668057,-0.453689 -0.139745,-0.18769 -0.306269,-0.358143 -0.419238,-0.563071 -0.558662,-1.013409 -0.402741,-2.188035 0.08278,-3.185377 0.618249,-0.975725 0.303337,-0.586888 1.705592,-1.740511 0.650562,-0.535212 1.487109,-0.731414 2.311849,-0.718788 0.93317,0.102687 1.992416,0.257397 2.608054,1.044125 0.02461,0.08726 0.07133,0.171146 0.07378,0.261768 0.01611,0.596916 -1.106638,1.221878 -1.217422,1.319062 -0.357717,0.313804 -0.795356,0.515424 -1.229889,0.696516 -1.027962,0.353242 -2.107205,0.595743 -3.199402,0.45439 0,0 0.916744,-0.89422 0.916744,-0.89422 z"
       inkscape:connector-curvature="0" />
  </g>
</svg>
